<svg xmlns="http://www.w3.org/2000/svg" width="24" height="24" fill="none" viewBox="0 0 24 24"><desc>Chartjs Streamline Icon: https://streamlinehq.com</desc><path fill="#36a2eb" d="M21.587 12.082c-3.285.064-2.601 2.144-4.917 2.67-2.352.534-2.723-5.745-5.074-5.745s-2.873 6.1-5.818 10.287l-.084.118 6.314 3.645 9.579-5.53z"/><path fill="#ffce56" d="M21.587 11.892c-1.1-1.411-1.846-3.034-3.451-3.034-2.84 0-2.093 4.633-5.232 4.633s-3.469-4.983-7.025-.298c-1.133 1.492-2.045 3.157-2.762 4.732l8.89 5.132 9.58-5.53z"/><path fill="#fe6184" d="M2.428 13.812c1.078-2.985 1.543-5.402 3.6-5.402 3.14 0 3.887 8.818 6.577 7.92 2.69-.896 2.392-5.679 6.577-5.679.797 0 1.61.488 2.405 1.278v5.598l-9.58 5.53-9.579-5.53z" opacity=".8"/><path fill="#e7e9ed" d="M12 23.75 1.823 17.875V6.125L12 .25l10.177 5.875v11.75zm-8.982-6.565L12 22.37l8.982-5.185V6.815L12 1.63 3.018 6.815z"/></svg>